<svg width="24" height="24" viewBox="0 0 24 24" fill="none" xmlns="http://www.w3.org/2000/svg">
<g clip-path="url(#clip0)">
<path d="M12 24C14.3734 24 16.6935 23.2962 18.6668 21.9776C20.6402 20.6591 22.1783 18.7849 23.0866 16.5922C23.9948 14.3995 24.2324 11.9867 23.7694 9.65892C23.3064 7.33115 22.1635 5.19295 20.4853 3.51472C18.8071 1.83649 16.6689 0.693605 14.3411 0.230582C12.0133 -0.232441 9.60051 0.00519943 7.4078 0.913451C5.21509 1.8217 3.34094 3.35977 2.02236 5.33316C0.703788 7.30655 0 9.62663 0 12C0 15.1826 1.26428 18.2349 3.51472 20.4853C5.76515 22.7357 8.8174 24 12 24ZM12 21.72C10.0776 21.72 8.1983 21.1499 6.59986 20.0819C5.00141 19.0138 3.75557 17.4958 3.01989 15.7197C2.28421 13.9436 2.09172 11.9892 2.46677 10.1037C2.84182 8.21823 3.76756 6.48629 5.12692 5.12693C6.48629 3.76756 8.21823 2.84182 10.1037 2.46677C11.9892 2.09172 13.9436 2.28421 15.7197 3.0199C17.4958 3.75558 19.0138 5.00142 20.0819 6.59986C21.1499 8.19831 21.72 10.0776 21.72 12C21.7168 14.5769 20.6917 17.0474 18.8696 18.8696C17.0474 20.6917 14.5769 21.7168 12 21.72Z" fill="white"/>
<path d="M5.84399 10.4L7.41599 8.828L11.956 13.384C11.9627 13.391 11.9708 13.3966 11.9797 13.4004C11.9887 13.4042 11.9983 13.4062 12.008 13.4062C12.0177 13.4062 12.0273 13.4042 12.0363 13.4004C12.0452 13.3966 12.0533 13.391 12.06 13.384L16.584 8.856L18.156 10.428L13.628 14.952C13.4151 15.1652 13.1623 15.3344 12.884 15.4498C12.6056 15.5652 12.3073 15.6246 12.006 15.6246C11.7047 15.6246 11.4063 15.5652 11.128 15.4498C10.8497 15.3344 10.5969 15.1652 10.384 14.952L5.84399 10.4Z" fill="white"/>
</g>
<defs>
<clipPath id="clip0">
<rect width="24" height="24" fill="white"/>
</clipPath>
</defs>
</svg>
