<svg height='100px' width='100px' fill="#000000" xmlns="http://www.w3.org/2000/svg" viewBox="0 0 512 512" x="0px"
     y="0px">
  <title>item treasure chest</title>
  <path
    d="M36.13,167.42H177.35a8.69,8.69,0,0,0,8.52-7l2.42-12.24a17.56,17.56,0,0,1,17.23-14.14h101a17.56,17.56,0,0,1,17.23,14.14l2.42,12.24a8.69,8.69,0,0,0,8.52,7H475.87a10.62,10.62,0,0,0,10.54-11.85c-4.73-41-26.44-65.32-44.45-78.72a72.07,72.07,0,0,0-43.07-14.17H113.11A72.07,72.07,0,0,0,70,76.85c-18,13.4-39.72,37.73-44.45,78.72A10.62,10.62,0,0,0,36.13,167.42Z"></path>
  <path
    d="M256.73,244.27a11.57,11.57,0,0,0,11.56-11.56V207.9a26.16,26.16,0,1,0-23.13,0v24.81A11.57,11.57,0,0,0,256.73,244.27Z"></path>
  <path
    d="M50.26,449.32H461.74a25.61,25.61,0,0,0,25.61-25.6V198.37a10.61,10.61,0,0,0-10.61-10.61H342.13a8.69,8.69,0,0,0-8.52,10.38l4.48,22.58a17.52,17.52,0,0,1-5.78,16.72,592.39,592.39,0,0,1-69.55,51,12.73,12.73,0,0,1-13.52,0,592.39,592.39,0,0,1-69.55-51,17.52,17.52,0,0,1-5.78-16.72l4.48-22.58a8.69,8.69,0,0,0-8.52-10.38H35.26a10.61,10.61,0,0,0-10.61,10.61V423.72A25.61,25.61,0,0,0,50.26,449.32Zm336.91-54.51,44.68-43.39a9.79,9.79,0,0,1,16.61,7v43.39a9.79,9.79,0,0,1-9.79,9.8H394A9.79,9.79,0,0,1,387.17,394.81ZM63.54,358.44a9.79,9.79,0,0,1,16.61-7l44.68,43.39A9.79,9.79,0,0,1,118,411.63H73.33a9.79,9.79,0,0,1-9.79-9.8Z"></path>
</svg>
