<svg width="24" height="24" viewBox="0 0 24 24" fill="none" xmlns="http://www.w3.org/2000/svg">
  <path fill-rule="evenodd" clip-rule="evenodd"
        d="M13.1511 4.02882L12 1.68L10.8489 4.02882L8.11969 4.33337L10.1375 6.08958L9.60184 8.62663L12 7.3632L14.3982 8.62663L13.8625 6.08958L15.8803 4.33337L13.1511 4.02882ZM7.92 19.92V22.176H16.08V19.92C16.0769 19.0631 15.8072 18.2285 15.3083 17.5318C14.8095 16.8351 14.1062 16.311 13.296 16.032C13.9714 15.7346 14.5239 15.214 14.861 14.5575C15.198 13.9011 15.299 13.1486 15.1471 12.4265C14.9951 11.7044 14.5995 11.0565 14.0265 10.5915C13.4534 10.1265 12.7379 9.8727 12 9.8727C11.2621 9.8727 10.5466 10.1265 9.97354 10.5915C9.40053 11.0565 9.00486 11.7044 8.85291 12.4265C8.70097 13.1486 8.80199 13.9011 9.13903 14.5575C9.47607 15.214 10.0286 15.7346 10.704 16.032C9.89382 16.311 9.19054 16.8351 8.69168 17.5318C8.19283 18.2285 7.92313 19.0631 7.92 19.92ZM20.3415 4.62322L20.6822 6.80908L22.8103 7.73953L20.7401 8.652L20.5364 10.8355L18.9162 9.21361L16.6624 9.63267L17.7313 7.71779L16.5419 5.79324L18.8227 6.2317L20.3415 4.62322ZM3.43476 6.80908L3.77547 4.62322L5.2943 6.2317L7.57508 5.79324L6.38575 7.71779L7.45464 9.63267L5.20076 9.21361L3.58058 10.8355L3.37694 8.652L1.30673 7.73953L3.43476 6.80908Z"
        fill="black"/>
</svg>
