<svg height='100px' width='100px' fill="#000000" xmlns="http://www.w3.org/2000/svg" version="1.1" x="0px" y="0px"
     viewBox="0 0 64 64" style="enable-background:new 0 0 64 64;" xml:space="preserve"><g><text transform="matrix(1 0 0 1 -76.29 -21)" style="" font-family="&apos;Montserrat-Regular&apos;" font-size="10px">idea</text><text
  transform="matrix(1 0 0 1 -2.3198 -21)"><tspan x="0" y="0" style="" font-family="&apos;Montserrat-Regular&apos;" font-size="10px">brains</tspan>
  <tspan x="38.669" y="0" style="" font-family="&apos;Montserrat-Regular&apos;" font-size="10px">t</tspan>
  <tspan x="43.899" y="0" style="" font-family="&apos;Montserrat-Regular&apos;" font-size="10px">orm</tspan></text><text
  transform="matrix(1 0 0 1 13.8403 75)" style="" font-family="&apos;Montserrat-Regular&apos;"
  font-size="10px">policy</text><text transform="matrix(1 0 0 1 107.6899 -21)" style=""
                                      font-family="&apos;Montserrat-Regular&apos;" font-size="10px">leader</text><text
  transform="matrix(1 0 0 1 202.7402 -21)"><tspan x="0" y="0" style="" font-family="&apos;Montserrat-Regular&apos;" font-size="10px">or</tspan>
  <tspan x="15.35" y="0" style="" font-family="&apos;Montserrat-Regular&apos;" font-size="10px">a</tspan>
  <tspan x="21.94" y="0" style="" font-family="&apos;Montserrat-Regular&apos;" font-size="10px">t</tspan>
  <tspan x="27.17" y="0" style="" font-family="&apos;Montserrat-Regular&apos;" font-size="10px">or</tspan></text><text
  transform="matrix(1 0 0 1 294.6753 -21)"><tspan x="0" y="0" style="" font-family="&apos;Montserrat-Regular&apos;" font-size="10px">business</tspan>
  <tspan x="-9.195" y="12" style="" font-family="&apos;Montserrat-Regular&apos;" font-size="10px">c</tspan>
  <tspan x="-2.365" y="12" style="" font-family="&apos;Montserrat-Regular&apos;" font-size="10px">onnection</tspan></text><text
  transform="matrix(1 0 0 1 405.5952 -21)" style="" font-family="&apos;Montserrat-Regular&apos;"
  font-size="10px">SEO</text><text transform="matrix(1 0 0 1 -94.7397 75)" style=""
                                   font-family="&apos;Montserrat-Regular&apos;" font-size="10px">developer</text><text
  transform="matrix(1 0 0 1 114.7451 75)"><tspan x="0" y="0" style="" font-family="&apos;Montserrat-Regular&apos;" font-size="10px">D</tspan>
  <tspan x="7.66" y="0" style="" font-family="&apos;Montserrat-Regular&apos;" font-size="10px">at</tspan>
  <tspan x="19.25" y="0" style="" font-family="&apos;Montserrat-Regular&apos;" font-size="10px">a</tspan>
  <tspan x="-11.475" y="12" style="" font-family="&apos;Montserrat-Regular&apos;" font-size="10px">Security</tspan></text><text
  transform="matrix(1 0 0 1 216.4199 75)" style="" font-family="&apos;Montserrat-Regular&apos;"
  font-size="10px">HR</text><text transform="matrix(1 0 0 1 294.2251 75)"><tspan x="0" y="0" style="" font-family="&apos;Montserrat-Regular&apos;" font-size="10px">L</tspan>
  <tspan x="5.24" y="0" style="" font-family="&apos;Montserrat-Regular&apos;" font-size="10px">o</tspan>
  <tspan x="13.14" y="0" style="" font-family="&apos;Montserrat-Regular&apos;" font-size="10px">gistics</tspan></text><text
  transform="matrix(1 0 0 1 392.0103 75)"><tspan x="0" y="0" style="" font-family="&apos;Montserrat-Regular&apos;" font-size="10px">ch</tspan>
  <tspan x="14.92" y="0" style="" font-family="&apos;Montserrat-Regular&apos;" font-size="10px">a</tspan>
  <tspan x="21.51" y="0" style="" font-family="&apos;Montserrat-Regular&apos;" font-size="10px">tb</tspan>
  <tspan x="34.3" y="0" style="" font-family="&apos;Montserrat-Regular&apos;" font-size="10px">o</tspan>
  <tspan x="42.31" y="0" style="" font-family="&apos;Montserrat-Regular&apos;" font-size="10px">t</tspan></text><text
  transform="matrix(1 0 0 1 -88.1396 171)"><tspan x="0" y="0" style="" font-family="&apos;Montserrat-Regular&apos;" font-size="10px">venture</tspan>
  <tspan x="3.45" y="12" style="" font-family="&apos;Montserrat-Regular&apos;" font-size="10px">c</tspan>
  <tspan x="10.399" y="12" style="" font-family="&apos;Montserrat-Regular&apos;" font-size="10px">api</tspan>
  <tspan x="27.33" y="12" style="" font-family="&apos;Montserrat-Regular&apos;" font-size="10px">t</tspan>
  <tspan x="32.33" y="12" style="" font-family="&apos;Montserrat-Regular&apos;" font-size="10px">al</tspan></text><text
  transform="matrix(1 0 0 1 5.29 171)"><tspan x="0" y="0" style="" font-family="&apos;Montserrat-Regular&apos;" font-size="10px">lever</tspan>
  <tspan x="32.29" y="0" style="" font-family="&apos;Montserrat-Regular&apos;" font-size="10px">a</tspan>
  <tspan x="39.38" y="0" style="" font-family="&apos;Montserrat-Regular&apos;" font-size="10px">ge</tspan></text><text
  transform="matrix(1 0 0 1 103.3701 171)"><tspan x="0" y="0" style="" font-family="&apos;Montserrat-Regular&apos;" font-size="10px">cre</tspan>
  <tspan x="20.75" y="0" style="" font-family="&apos;Montserrat-Regular&apos;" font-size="10px">a</tspan>
  <tspan x="27.34" y="0" style="" font-family="&apos;Montserrat-Regular&apos;" font-size="10px">tive</tspan></text><text
  transform="matrix(1 0 0 1 187.4502 171)"><tspan x="0" y="0" style="" font-family="&apos;Montserrat-Regular&apos;" font-size="10px">s</tspan>
  <tspan x="6.16" y="0" style="" font-family="&apos;Montserrat-Regular&apos;" font-size="10px">o</tspan>
  <tspan x="14.06" y="0" style="" font-family="&apos;Montserrat-Regular&apos;" font-size="10px">cial media</tspan>
  <tspan x="2.19" y="12" style="" font-family="&apos;Montserrat-Regular&apos;" font-size="10px">a</tspan>
  <tspan x="9.45" y="12" style="" font-family="&apos;Montserrat-Regular&apos;" font-size="10px">d</tspan>
  <tspan x="17.19" y="12" style="" font-family="&apos;Montserrat-Regular&apos;" font-size="10px">vertising</tspan></text><text
  transform="matrix(1 0 0 1 298.46 171)"><tspan x="0" y="0" style="" font-family="&apos;Montserrat-Regular&apos;" font-size="10px">se</tspan>
  <tspan x="12.69" y="0" style="" font-family="&apos;Montserrat-Regular&apos;" font-size="10px">r</tspan>
  <tspan x="19.84" y="0" style="" font-family="&apos;Montserrat-Regular&apos;" font-size="10px">vice</tspan>
  <tspan x="7.48" y="12" style="" font-family="&apos;Montserrat-Regular&apos;" font-size="10px">mind</tspan></text><text
  transform="matrix(1 0 0 1 396.4004 171)"><tspan x="0" y="0" style="" font-family="&apos;Montserrat-Regular&apos;" font-size="10px">t</tspan>
  <tspan x="5" y="0" style="" font-family="&apos;Montserrat-Regular&apos;" font-size="10px">arget</tspan></text><text
  transform="matrix(1 0 0 1 -102.6899 267)"><tspan x="0" y="0" style="" font-family="&apos;Montserrat-Regular&apos;" font-size="10px">presen</tspan>
  <tspan x="41.1" y="0" style="" font-family="&apos;Montserrat-Regular&apos;" font-size="10px">ta</tspan>
  <tspan x="52.69" y="0" style="" font-family="&apos;Montserrat-Regular&apos;" font-size="10px">tion</tspan></text><text
  transform="matrix(1 0 0 1 6.1704 267)"><tspan x="0" y="0" style="" font-family="&apos;Montserrat-Regular&apos;" font-size="10px">str</tspan>
  <tspan x="19.06" y="0" style="" font-family="&apos;Montserrat-Regular&apos;" font-size="10px">a</tspan>
  <tspan x="25.65" y="0" style="" font-family="&apos;Montserrat-Regular&apos;" font-size="10px">tegy</tspan></text><text
  transform="matrix(1 0 0 1 115.9453 267)"><tspan x="0" y="0" style="" font-family="&apos;Montserrat-Regular&apos;" font-size="10px">Web</tspan>
  <tspan x="-18.685" y="12" style="" font-family="&apos;Montserrat-Regular&apos;" font-size="10px">developer</tspan></text><text
  transform="matrix(1 0 0 1 203.7554 267)"><tspan x="0" y="0" style="" font-family="&apos;Montserrat-Regular&apos;" font-size="10px">global</tspan>
  <tspan x="-5.08" y="12" style="" font-family="&apos;Montserrat-Regular&apos;" font-size="10px">business</tspan></text><text
  transform="matrix(1 0 0 1 293.9302 267)"><tspan x="0" y="0" style="" font-family="&apos;Montserrat-Regular&apos;" font-size="10px">c</tspan>
  <tspan x="6.83" y="0" style="" font-family="&apos;Montserrat-Regular&apos;" font-size="10px">om</tspan>
  <tspan x="24.34" y="0" style="" font-family="&apos;Montserrat-Regular&apos;" font-size="10px">p</tspan>
  <tspan x="30.64" y="0" style="" font-family="&apos;Montserrat-Regular&apos;" font-size="10px">any</tspan>
  <tspan x="4.835" y="12" style="" font-family="&apos;Montserrat-Regular&apos;" font-size="10px">profile</tspan></text><text
  transform="matrix(1 0 0 1 388.3452 267)"><tspan x="0" y="0" style="" font-family="&apos;Montserrat-Regular&apos;" font-size="10px">empl</tspan>
  <tspan x="27.87" y="0" style="" font-family="&apos;Montserrat-Regular&apos;" font-size="10px">o</tspan>
  <tspan x="35.95" y="0" style="" font-family="&apos;Montserrat-Regular&apos;" font-size="10px">yee</tspan>
  <tspan x="13.02" y="12" style="" font-family="&apos;Montserrat-Regular&apos;" font-size="10px">c</tspan>
  <tspan x="19.97" y="12" style="" font-family="&apos;Montserrat-Regular&apos;" font-size="10px">ard</tspan></text><text
  transform="matrix(1 0 0 1 -89.3247 363)"><tspan x="0" y="0" style="" font-family="&apos;Montserrat-Regular&apos;" font-size="10px">business</tspan>
  <tspan x="1.245" y="12" style="" font-family="&apos;Montserrat-Regular&apos;" font-size="10px">p</tspan>
  <tspan x="7.545" y="12" style="" font-family="&apos;Montserrat-Regular&apos;" font-size="10px">artner</tspan></text><text
  transform="matrix(1 0 0 1 9.1753 363)"><tspan x="0" y="0" style="" font-family="&apos;Montserrat-Regular&apos;" font-size="10px">s</tspan>
  <tspan x="6.16" y="0" style="" font-family="&apos;Montserrat-Regular&apos;" font-size="10px">t</tspan>
  <tspan x="11.16" y="0" style="" font-family="&apos;Montserrat-Regular&apos;" font-size="10px">artup</tspan></text><text
  transform="matrix(1 0 0 1 104.0103 363)"><tspan x="0" y="0" style="" font-family="&apos;Montserrat-Regular&apos;" font-size="10px">re</tspan>
  <tspan x="13.76" y="0" style="" font-family="&apos;Montserrat-Regular&apos;" font-size="10px">t</tspan>
  <tspan x="18.76" y="0" style="" font-family="&apos;Montserrat-Regular&apos;" font-size="10px">ailer</tspan></text><text
  transform="matrix(1 0 0 1 210.3901 363)"><tspan x="0" y="0" style="" font-family="&apos;Montserrat-Regular&apos;" font-size="10px">p</tspan>
  <tspan x="6.71" y="0" style="" font-family="&apos;Montserrat-Regular&apos;" font-size="10px">l</tspan>
  <tspan x="12.02" y="0" style="" font-family="&apos;Montserrat-Regular&apos;" font-size="10px">an</tspan></text><text
  transform="matrix(1 0 0 1 296.2603 363)" style="" font-family="&apos;Montserrat-Regular&apos;" font-size="10px">funding</text><text
  transform="matrix(1 0 0 1 398.5503 363)" style="" font-family="&apos;Montserrat-Regular&apos;"
  font-size="10px">vision</text><text transform="matrix(1 0 0 1 -88.5898 459)" style=""
                                      font-family="&apos;Montserrat-Regular&apos;" font-size="10px">building</text><text
  transform="matrix(1 0 0 1 11.1353 459)"><tspan x="0" y="0" style="" font-family="&apos;Montserrat-Regular&apos;" font-size="10px">c</tspan>
  <tspan x="6.95" y="0" style="" font-family="&apos;Montserrat-Regular&apos;" font-size="10px">areer</tspan>
  <tspan x="7.62" y="12" style="" font-family="&apos;Montserrat-Regular&apos;" font-size="10px">p</tspan>
  <tspan x="13.919" y="12" style="" font-family="&apos;Montserrat-Regular&apos;" font-size="10px">a</tspan>
  <tspan x="20.51" y="12" style="" font-family="&apos;Montserrat-Regular&apos;" font-size="10px">th</tspan></text><text
  transform="matrix(1 0 0 1 107.2554 459)" style="" font-family="&apos;Montserrat-Regular&apos;"
  font-size="10px">report</text><text transform="matrix(1 0 0 1 195.3652 459)"><tspan x="0" y="0" style="" font-family="&apos;Montserrat-Regular&apos;" font-size="10px">cus</tspan>
  <tspan x="20.77" y="0" style="" font-family="&apos;Montserrat-Regular&apos;" font-size="10px">t</tspan>
  <tspan x="26" y="0" style="" font-family="&apos;Montserrat-Regular&apos;" font-size="10px">omer</tspan>
  <tspan x="4.525" y="12" style="" font-family="&apos;Montserrat-Regular&apos;" font-size="10px">support</tspan></text><text
  transform="matrix(1 0 0 1 293.9302 459)"><tspan x="0" y="0" style="" font-family="&apos;Montserrat-Regular&apos;" font-size="10px">c</tspan>
  <tspan x="6.83" y="0" style="" font-family="&apos;Montserrat-Regular&apos;" font-size="10px">om</tspan>
  <tspan x="24.34" y="0" style="" font-family="&apos;Montserrat-Regular&apos;" font-size="10px">p</tspan>
  <tspan x="30.64" y="0" style="" font-family="&apos;Montserrat-Regular&apos;" font-size="10px">any</tspan>
  <tspan x="13.815" y="12" style="" font-family="&apos;Montserrat-Regular&apos;" font-size="10px">visit</tspan></text><text
  transform="matrix(1 0 0 1 404.7549 459)"><tspan x="0" y="0" style="" font-family="&apos;Montserrat-Regular&apos;" font-size="10px">v</tspan>
  <tspan x="6.76" y="0" style="" font-family="&apos;Montserrat-Regular&apos;" font-size="10px">d</tspan>
  <tspan x="14.37" y="0" style="" font-family="&apos;Montserrat-Regular&apos;" font-size="10px">o</tspan>
  <tspan x="-23.915" y="12" style="" font-family="&apos;Montserrat-Regular&apos;" font-size="10px">c</tspan>
  <tspan x="-17.084" y="12" style="" font-family="&apos;Montserrat-Regular&apos;" font-size="10px">onference</tspan></text></g>
  <path
    d="M33,43c-2.757,0-5,2.243-5,5s2.243,5,5,5s5-2.243,5-5S35.757,43,33,43z M33,51c-1.654,0-3-1.346-3-3s1.346-3,3-3  s3,1.346,3,3S34.654,51,33,51z"></path>
  <path
    d="M42,45h-1.584c-0.017-0.041-0.033-0.082-0.05-0.123l1.12-1.12c0.188-0.188,0.293-0.442,0.293-0.707s-0.105-0.52-0.293-0.707  l-2.829-2.829c-0.375-0.375-1.039-0.375-1.414,0l-1.12,1.12c-0.041-0.017-0.082-0.034-0.123-0.05V39c0-0.552-0.448-1-1-1h-4  c-0.552,0-1,0.448-1,1v1.584c-0.041,0.017-0.082,0.033-0.123,0.05l-1.12-1.12c-0.188-0.188-0.442-0.293-0.707-0.293  s-0.52,0.105-0.707,0.293l-2.829,2.829c-0.188,0.188-0.293,0.442-0.293,0.707s0.105,0.52,0.293,0.707l1.12,1.12  c-0.017,0.041-0.034,0.082-0.05,0.123H24c-0.552,0-1,0.448-1,1v4c0,0.552,0.448,1,1,1h1.584c0.017,0.041,0.033,0.082,0.05,0.123  l-1.12,1.12c-0.188,0.188-0.293,0.442-0.293,0.707s0.105,0.52,0.293,0.707l2.829,2.829c0.375,0.375,1.039,0.375,1.414,0l1.12-1.12  c0.041,0.017,0.082,0.034,0.123,0.05V57c0,0.552,0.448,1,1,1h4c0.552,0,1-0.448,1-1v-1.584c0.041-0.017,0.082-0.033,0.123-0.05  l1.12,1.12c0.188,0.188,0.442,0.293,0.707,0.293s0.52-0.105,0.707-0.293l2.829-2.829c0.188-0.188,0.293-0.442,0.293-0.707  s-0.105-0.52-0.293-0.707l-1.12-1.12c0.017-0.041,0.034-0.082,0.05-0.123H42c0.552,0,1-0.448,1-1v-4C43,45.448,42.552,45,42,45z   M41,49h-1.294c-0.442,0-0.833,0.291-0.958,0.715c-0.12,0.403-0.277,0.786-0.469,1.139c-0.211,0.389-0.141,0.871,0.172,1.184  l0.913,0.913l-1.414,1.414l-0.913-0.913c-0.313-0.313-0.794-0.383-1.184-0.172c-0.353,0.191-0.736,0.349-1.139,0.469  C34.291,53.874,34,54.264,34,54.706V56h-2v-1.294c0-0.442-0.291-0.833-0.715-0.958c-0.403-0.12-0.786-0.277-1.139-0.469  c-0.39-0.211-0.871-0.14-1.184,0.172l-0.913,0.913l-1.414-1.414l0.913-0.913c0.313-0.313,0.383-0.794,0.172-1.184  c-0.191-0.353-0.349-0.736-0.469-1.139C27.126,49.291,26.736,49,26.294,49H25v-2h1.294c0.442,0,0.833-0.291,0.958-0.715  c0.12-0.403,0.277-0.786,0.469-1.139c0.211-0.389,0.141-0.871-0.172-1.184l-0.913-0.913l1.414-1.414l0.913,0.913  c0.313,0.313,0.794,0.383,1.184,0.172c0.353-0.191,0.736-0.349,1.139-0.469C31.709,42.126,32,41.736,32,41.294V40h2v1.294  c0,0.442,0.291,0.833,0.715,0.958c0.403,0.12,0.786,0.277,1.139,0.469c0.389,0.21,0.871,0.141,1.184-0.172l0.913-0.913l1.414,1.414  l-0.913,0.913c-0.313,0.313-0.383,0.794-0.172,1.184c0.191,0.353,0.349,0.736,0.469,1.139C38.874,46.709,39.264,47,39.706,47H41V49z  "></path>
  <path
    d="M52,30c-2.757,0-5,2.243-5,5s2.243,5,5,5s5-2.243,5-5S54.757,30,52,30z M52,38c-1.654,0-3-1.346-3-3s1.346-3,3-3  s3,1.346,3,3S53.654,38,52,38z"></path>
  <path
    d="M61,32h-1.584c-0.017-0.041-0.033-0.082-0.05-0.123l1.12-1.12c0.188-0.188,0.293-0.442,0.293-0.707s-0.105-0.52-0.293-0.707  l-2.829-2.829c-0.375-0.375-1.039-0.375-1.414,0l-1.12,1.12c-0.041-0.017-0.082-0.034-0.123-0.05V26c0-0.552-0.448-1-1-1h-2V3  c0-0.552-0.448-1-1-1h-5H6C5.448,2,5,2.448,5,3v58c0,0.552,0.448,1,1,1h40h5c0.552,0,1-0.448,1-1V45h2c0.552,0,1-0.448,1-1v-1.584  c0.041-0.017,0.082-0.033,0.123-0.05l1.12,1.12c0.188,0.188,0.442,0.293,0.707,0.293s0.52-0.105,0.707-0.293l2.829-2.829  c0.188-0.188,0.293-0.442,0.293-0.707s-0.105-0.52-0.293-0.707l-1.12-1.12c0.017-0.041,0.034-0.082,0.05-0.123H61  c0.552,0,1-0.448,1-1v-4C62,32.448,61.552,32,61,32z M50,25c-0.552,0-1,0.448-1,1v1.584c-0.041,0.017-0.082,0.033-0.123,0.05  l-1.12-1.12c-0.188-0.188-0.442-0.293-0.707-0.293c-0.017,0-0.034,0-0.05,0.001V4h3V25z M7,4h38v23.858l-1.485,1.485  c-0.188,0.188-0.293,0.442-0.293,0.707s0.105,0.52,0.293,0.707l1.12,1.12c-0.017,0.041-0.034,0.082-0.05,0.123H43  c-0.552,0-1,0.448-1,1v4c0,0.552,0.448,1,1,1h1.584c0.017,0.041,0.033,0.082,0.05,0.123l-1.12,1.12  c-0.188,0.188-0.293,0.442-0.293,0.707s0.105,0.52,0.293,0.707L45,42.142V60H7V4z M50,60h-3V43.777  c0.289,0.023,0.558-0.092,0.757-0.292l1.12-1.12c0.041,0.017,0.082,0.034,0.123,0.05V44c0,0.552,0.448,1,1,1V60z M60,36h-1.294  c-0.442,0-0.833,0.291-0.958,0.715c-0.12,0.403-0.277,0.786-0.469,1.139c-0.211,0.389-0.141,0.871,0.172,1.184l0.913,0.913  l-1.414,1.414l-0.913-0.913c-0.313-0.313-0.794-0.383-1.184-0.172c-0.353,0.191-0.736,0.349-1.139,0.469  C53.291,40.874,53,41.264,53,41.706V43h-2v-1.294c0-0.442-0.291-0.833-0.715-0.958c-0.403-0.12-0.786-0.277-1.139-0.469  c-0.39-0.21-0.871-0.141-1.184,0.172l-0.913,0.913l-1.414-1.414l0.913-0.913c0.313-0.313,0.383-0.794,0.172-1.184  c-0.191-0.353-0.349-0.736-0.469-1.139C46.126,36.291,45.736,36,45.294,36H44v-2h1.294c0.442,0,0.833-0.291,0.958-0.715  c0.12-0.403,0.277-0.786,0.469-1.139c0.211-0.389,0.141-0.871-0.172-1.184l-0.913-0.913l1.414-1.414l0.913,0.913  c0.089,0.089,0.192,0.152,0.302,0.201c0.035,0.016,0.07,0.022,0.107,0.033c0.079,0.025,0.157,0.042,0.24,0.047  c0.02,0.001,0.039,0.012,0.059,0.012c0.037,0,0.075-0.01,0.112-0.014c0.029-0.003,0.058-0.005,0.087-0.011  c0.095-0.019,0.188-0.048,0.277-0.096c0.353-0.191,0.736-0.349,1.139-0.469C50.709,29.126,51,28.736,51,28.294V27h2v1.294  c0,0.442,0.291,0.833,0.715,0.958c0.403,0.12,0.786,0.277,1.139,0.469c0.39,0.211,0.871,0.14,1.184-0.172l0.913-0.913l1.414,1.414  l-0.913,0.913c-0.313,0.313-0.383,0.794-0.172,1.184c0.191,0.353,0.349,0.736,0.469,1.139C57.874,33.709,58.264,34,58.706,34H60V36z  "></path>
  <rect x="32" y="9" width="10" height="2"></rect>
  <rect x="10" y="9" width="20" height="2"></rect>
  <rect x="19" y="13" width="23" height="2"></rect>
  <rect x="10" y="13" width="7" height="2"></rect>
  <rect x="30" y="17" width="12" height="2"></rect>
  <rect x="10" y="17" width="18" height="2"></rect>
  <rect x="10" y="21" width="32" height="2"></rect>
  <rect x="32" y="25" width="10" height="2"></rect>
  <rect x="10" y="25" width="20" height="2"></rect>
  <rect x="17" y="29" width="25" height="2"></rect>
  <rect x="10" y="29" width="5" height="2"></rect>
  <rect x="10" y="33" width="15" height="2"></rect></svg>
