<svg width="24" height="24" viewBox="0 0 24 24" fill="none" xmlns="http://www.w3.org/2000/svg">
  <path fill-rule="evenodd" clip-rule="evenodd"
        d="M12 24C18.6274 24 24 18.6274 24 12C24 5.37258 18.6274 0 12 0C5.37258 0 0 5.37258 0 12C0 18.6274 5.37258 24 12 24ZM12 22.464C17.7791 22.464 22.464 17.7791 22.464 12C22.464 6.22089 17.7791 1.536 12 1.536C6.2209 1.536 1.53601 6.22089 1.53601 12C1.53601 17.7791 6.2209 22.464 12 22.464Z"
        fill="black"/>
  <path fill-rule="evenodd" clip-rule="evenodd"
        d="M12.0863 21.0953C17.0619 21.0953 21.0953 17.0619 21.0953 12.0863C21.0953 7.11082 17.0619 3.07736 12.0863 3.07736C7.11082 3.07736 3.07736 7.11082 3.07736 12.0863C3.07736 17.0619 7.11082 21.0953 12.0863 21.0953ZM12.0863 19.9422C16.425 19.9422 19.9422 16.425 19.9422 12.0863C19.9422 7.74769 16.425 4.23051 12.0863 4.23051C7.74767 4.23051 4.2305 7.74769 4.2305 12.0863C4.2305 16.425 7.74767 19.9422 12.0863 19.9422Z"
        fill="black"/>
  <path
    d="M13.4304 12.0681C13.4304 14.7765 12.912 16.9722 12.2725 16.9722C11.633 16.9722 11.1146 14.7765 11.1146 12.0681C11.1146 9.35968 11.633 7.16406 12.2725 7.16406C12.912 7.16406 13.4304 9.35968 13.4304 12.0681Z"
    fill="black"/>
</svg>
