<svg height='100px' width='100px' fill="#000000" xmlns="http://www.w3.org/2000/svg" version="1.1" x="0px" y="0px"
     viewBox="0 0 65 65" enable-background="new 0 0 65 65" xml:space="preserve"><g><g><path d="M28.6717243,26.3200073c0-2.1199951,1.7299805-3.8499756,3.8399677-3.8499756    c2.1199951,0,3.8400269,1.7299805,3.8400269,3.8499756c0,2.1100464-1.7200317,3.8400269-3.8400269,3.8400269    C30.4017048,30.1600342,28.6717243,28.4300537,28.6717243,26.3200073z"></path><path
  d="M40.431736,37.2600098v2.9199829c0,0.4100342-0.3400269,0.75-0.75,0.75H25.351717c-0.4199829,0-0.75-0.3399658-0.75-0.75    v-2.9199829c0-3.0899658,2.5-5.5999756,5.5899658-5.5999756h4.6500263    C37.9217262,31.6600342,40.431736,34.1700439,40.431736,37.2600098z"></path></g><g><path d="M58.8116798,43.7800293c-1.4099731-0.7999878-3.1399536-0.5-4.2099609,0.6599731l-2.7000122-1.5499878    l5.7800293-10.0200195c0.1299438-0.2299805,0.1299438-0.5099487,0-0.75l-5.6600342-9.8099976l2.5800171-1.4799805    c1.0999756,1.2199707,2.8999634,1.4299927,4.2099609,0.6599731c1.6200562-0.9299927,2.210022-2.9899902,1.2700195-4.6699829    c-0.9500122-1.6499634-3.0700073-2.1799927-4.6699829-1.2600098c-1.4899902,0.8699951-1.9899902,2.5800171-1.5599976,3.9700317    l-2.5800171,1.4899902l-5.8499756-10.1300049c-0.1300049-0.2299805-0.3800049-0.3699951-0.6500244-0.3699951H33.261692V7.5    c1.5300293-0.3399658,2.6700439-1.7099609,2.6700439-3.3299561C35.931736,2.2800293,34.4017067,0.75,32.511692,0.75    c-1.8800068,0-3.4099751,1.5300293-3.4099751,3.4200439c0,1.6199951,1.1400146,2.9899902,2.6599731,3.3299561v3.0200195    H20.2516804c-0.2599487,0-0.5099487,0.1400146-0.6399536,0.3699951l-5.8500366,10.1400146l-2.6099854-1.5    c0.460022-1.4199829-0.0900269-3.1199951-1.5599976-3.9700317c-1.5999751-0.9199829-3.72998-0.3899536-4.6599727,1.2600098    c-0.9500122,1.6500244-0.3900146,3.710022,1.2599487,4.6699829C7.5716882,22.2900391,9.3617268,22,10.4117146,20.8300171    l2.5999756,1.5l-5.6599727,9.789978c-0.1400146,0.2400513-0.1400146,0.5200195,0,0.75l5.769958,10l-2.7199707,1.5700073    c-1.0300293-1.1400146-2.7600093-1.4699707-4.2100215-0.6599731c-1.6499634,0.9599609-2.1999512,3.0499878-1.2599487,4.6699829    c0.8999634,1.5999756,2.9799805,2.2299805,4.6599727,1.2600098c0.789978-0.4500122,1.3599854-1.1900024,1.5999756-2.0700073    c0.1700439-0.6300049,0.1600342-1.289978-0.039978-1.9000244l2.7299805-1.5599976l5.7300415,9.9300537    c0.1300049,0.2299805,0.3800049,0.3699951,0.6399536,0.3699951h11.5100098V57.5    c-1.5199585,0.3400269-2.6599731,1.710022-2.6599731,3.3300171c0,1.8900146,1.5299683,3.4199829,3.4099751,3.4199829    c1.8900146,0,3.4200439-1.5299683,3.4200439-3.4199829c0-1.6199951-1.1400146-2.9899902-2.6700439-3.3300171v-3.0199585    h11.5100098c0.2700195,0,0.5200195-0.1400146,0.6500244-0.3699951l5.7199707-9.9200439l2.710022,1.5499878    c-0.4500122,1.4400024,0.1099854,3.1400146,1.5599976,3.9700317c1.6799927,0.9699707,3.75,0.3399658,4.6699829-1.2600098    C61.0016823,46.8300171,60.471714,44.7399902,58.8116798,43.7800293z M50.1316872,35.1500244l-5.9199829,0.5299683    c-0.2799683,1.2900391-0.7999878,2.5-1.4699707,3.5800171l3.789978,4.5599976l-3.1199951,3.1400146l-4.5599976-3.8099976    c-1.0900269,0.6799927-2.2900391,1.2000122-3.5900269,1.4899902l-0.5299683,5.9099731h-4.4299946l-0.5300293-5.9099731    c-1.289978-0.2999878-2.5-0.8099976-3.5899658-1.4899902l-4.5500488,3.8099976l-3.1399536-3.1400146l3.8099976-4.5599976    c-0.6700439-1.0800171-1.1900024-2.289978-1.4800415-3.5800171l-5.9199829-0.5299683v-4.4299927l5.9199829-0.5300293    c0.2900391-1.2999878,0.8099976-2.5,1.4899902-3.5999756l-3.8199463-4.5499878l3.1399536-3.1300049l4.5500488,3.8099976    c1.0899658-0.6799927,2.2999878-1.1900024,3.5899658-1.4899902l0.5300293-5.9100342h4.4299946l0.5299683,5.9100342    c1.2999878,0.289978,2.5,0.8099976,3.5900269,1.4899902l4.5599976-3.8099976l3.1199951,3.1300049l-3.8099976,4.5499878    c0.6900024,1.0999756,1.210022,2.2999878,1.4899902,3.5999756l5.9199829,0.5300293V35.1500244z"></path></g></g></svg>
