<svg height='100px' width='100px' fill="#000000" xmlns="http://www.w3.org/2000/svg" data-name="Layer 1"
     viewBox="0 0 64 64" x="0px" y="0px">
  <rect x="56" y="8" width="2" height="4"></rect>
  <rect x="53" y="2" width="2" height="3"></rect>
  <rect x="59" y="2" width="2" height="4"></rect>
  <path
    d="M51.082,26.893a5.057,5.057,0,0,0-.942,4.31A4.9,4.9,0,0,0,55.223,35a4.615,4.615,0,0,0,4.407-3.754c.782-2.966-.275-6.317-2.405-7.631A3.48,3.48,0,0,1,55.574,21.3a3.249,3.249,0,0,1,.629-2.575,1.344,1.344,0,0,0,.107-1.548L54,13.486v1.073a4.451,4.451,0,0,1-1.312,3.168L51.664,18.75a2.47,2.47,0,0,0-.351,3.067A4.414,4.414,0,0,1,51.082,26.893Z"></path>
  <path
    d="M34.68,36.963a1.932,1.932,0,0,0,.76-1.368A2,2,0,0,0,35.4,35H31a1,1,0,0,1-.914-.594L27,27.462l-3.086,6.944A1,1,0,0,1,23,35H17.414l4.293,4.293a1,1,0,0,1,.23,1.058l-2.163,5.766,6.82-3.031a1,1,0,0,1,.812,0l1.42.632A21.015,21.015,0,0,1,34.68,36.963Z"></path>
  <path
    d="M27,45.094l-8.594,3.82a1,1,0,0,1-1.343-1.265l2.775-7.4-5.545-5.545A1,1,0,0,1,15,33h7.351l3.735-8.406a1,1,0,0,1,1.828,0L31.649,33h2.513a7.513,7.513,0,0,1,.115-8.109A15,15,0,1,0,27,53c.063,0,.123-.008.186-.009A11.156,11.156,0,0,1,27,51a15.318,15.318,0,0,1,1.008-5.458Z"></path>
  <path d="M9,14H44V8H9V6H45a1,1,0,0,1,1,1v7h2V4H9A5,5,0,0,0,9,14Zm0-4H42v2H9Z"></path>
  <path
    d="M38,60h.008a8.54,8.54,0,0,0,7.017-3.917C48.9,50.3,46.333,48.162,43.612,45.9a3.079,3.079,0,0,1,.6-5.12,2.3,2.3,0,0,0,.885-3.332l-1.889-2.833a16.713,16.713,0,0,1-2.625-11.784L38.1,24.066a5.561,5.561,0,0,0-1.669,8.668,4.024,4.024,0,0,1,1,3.055,3.967,3.967,0,0,1-1.54,2.766C32.747,40.945,29,45.045,29,51a9,9,0,0,0,9,9ZM36.293,42.293l1.414,1.414-2,2-1.414-1.414Zm-3.51,4.04,1.49,1.334A5,5,0,0,0,38,56v2a7,7,0,0,1-5.217-11.667Z"></path>
  <path
    d="M9,60H31.688a10.855,10.855,0,0,1-3.939-5.021c-.263.014-.511.021-.749.021a17,17,0,1,1,8.607-31.64,7.6,7.6,0,0,1,1.6-1.083l4.343-2.172a1,1,0,0,1,1.409,1.17A14.718,14.718,0,0,0,44.87,33.5l1.889,2.832A4.3,4.3,0,0,1,45.1,42.566a1.08,1.08,0,0,0-.212,1.794c2.659,2.213,6.676,5.557,1.794,12.837A11.2,11.2,0,0,1,44,60h6V34.928a6.821,6.821,0,0,1-1.81-3.277,7.051,7.051,0,0,1,1.326-6h0a2.41,2.41,0,0,0,.1-2.772A4.445,4.445,0,0,1,50,17.633V16H9a6.973,6.973,0,0,1-5-2.111V55A5.006,5.006,0,0,0,9,60Z"></path>
</svg>
