<svg width="237" height="296" viewBox="0 0 237 296" fill="none" xmlns="http://www.w3.org/2000/svg">
  <path fill-rule="evenodd" clip-rule="evenodd"
        d="M215.858 33.4193V24.1626V21.1626H212.858H203.602L206.602 24.1626H212.858V30.4193L215.858 33.4193ZM212.858 67.2772V292.218H24.1625V67.1047L21.1625 70.1047V292.218V295.218H24.1625H212.858H215.858V292.218V70.2772L212.858 67.2772ZM169.744 24.1626L166.744 21.1626H70.1046L67.1046 24.1626H169.744ZM24.1625 24.1626H30.2467L33.2467 21.1626H24.1625H21.1625V24.1626V33.2468L24.1625 30.2468V24.1626Z"
        fill="black"/>
  <rect x="2.12132" y="54.4093" width="73.9464" height="23.0625" transform="rotate(-45 2.12132 54.4093)" stroke="black"
        stroke-width="3"/>
  <rect x="-2.12132" width="73.9464" height="23.0625"
        transform="matrix(-0.707107 -0.707107 -0.707107 0.707107 233.227 52.9093)" stroke="black" stroke-width="3"/>
  <rect x="44.3833" y="61.3132" width="148.254" height="117.569" stroke="black" stroke-width="2"/>
  <rect x="43.3833" y="188.347" width="60.3133" height="11.6394" fill="black"/>
  <rect x="124.859" y="188.347" width="60.3133" height="11.6394" fill="black"/>
  <rect x="83.5922" y="207.393" width="60.3133" height="11.6394" fill="black"/>
  <rect x="43.3833" y="207.393" width="30.6857" height="11.6394" fill="black"/>
  <rect x="154.487" y="207.393" width="30.6857" height="11.6394" fill="black"/>
  <rect x="43.3833" y="226.439" width="60.3133" height="11.6394" fill="black"/>
  <rect x="124.859" y="226.439" width="60.3133" height="11.6394" fill="black"/>
  <rect x="83.5922" y="245.486" width="60.3133" height="11.6394" fill="black"/>
  <rect x="43.3833" y="245.486" width="30.6857" height="11.6394" fill="black"/>
  <rect x="64.5458" y="270.881" width="30.6857" height="11.6394" fill="black"/>
  <rect x="154.487" y="245.486" width="30.6857" height="11.6394" fill="black"/>
  <mask id="path-16-inside-1" fill="white">
    <path fill-rule="evenodd" clip-rule="evenodd"
          d="M179.724 119.351C179.039 124.703 175.498 129.163 170.677 131.152C183.285 135.692 192.893 155.14 193.562 178.824H136.498C137.168 155.139 146.776 135.692 159.384 131.152C154.212 129.018 150.513 124.04 150.234 118.167L147.331 108.495L151.047 112.552C153.07 106.779 158.567 102.639 165.031 102.639C171.524 102.639 177.042 106.817 179.042 112.631L183.056 108.249L179.724 119.351Z"/>
  </mask>
  <path fill-rule="evenodd" clip-rule="evenodd"
        d="M179.724 119.351C179.039 124.703 175.498 129.163 170.677 131.152C183.285 135.692 192.893 155.14 193.562 178.824H136.498C137.168 155.139 146.776 135.692 159.384 131.152C154.212 129.018 150.513 124.04 150.234 118.167L147.331 108.495L151.047 112.552C153.07 106.779 158.567 102.639 165.031 102.639C171.524 102.639 177.042 106.817 179.042 112.631L183.056 108.249L179.724 119.351Z"
        fill="#D7D7D7"/>
  <path
    d="M170.677 131.152L170.296 130.228L167.902 131.215L170.338 132.093L170.677 131.152ZM179.724 119.351L178.766 119.063L178.743 119.142L178.732 119.224L179.724 119.351ZM193.562 178.824V179.824H194.591L194.562 178.796L193.562 178.824ZM136.498 178.824L135.498 178.796L135.469 179.824H136.498V178.824ZM159.384 131.152L159.723 132.093L162.159 131.215L159.765 130.228L159.384 131.152ZM150.234 118.167L151.233 118.119L151.227 117.997L151.192 117.879L150.234 118.167ZM147.331 108.495L148.068 107.819L146.373 108.782L147.331 108.495ZM151.047 112.552L150.309 113.227L151.438 114.459L151.991 112.882L151.047 112.552ZM179.042 112.631L178.097 112.956L178.644 114.547L179.78 113.307L179.042 112.631ZM183.056 108.249L184.014 108.536L182.319 107.573L183.056 108.249ZM171.058 132.077C176.203 129.954 179.985 125.195 180.716 119.477L178.732 119.224C178.094 124.212 174.792 128.372 170.296 130.228L171.058 132.077ZM194.562 178.796C194.224 166.834 191.629 155.908 187.497 147.373C183.375 138.861 177.662 132.605 171.016 130.211L170.338 132.093C176.299 134.24 181.694 139.977 185.696 148.245C189.688 156.489 192.231 167.13 192.563 178.852L194.562 178.796ZM136.498 179.824H193.562V177.824H136.498V179.824ZM159.045 130.211C152.399 132.604 146.685 138.86 142.564 147.373C138.432 155.908 135.837 166.833 135.498 178.796L137.498 178.852C137.829 167.13 140.373 156.489 144.364 148.244C148.367 139.977 153.762 134.239 159.723 132.093L159.045 130.211ZM149.235 118.214C149.533 124.487 153.483 129.799 159.003 132.076L159.765 130.228C154.941 128.237 151.493 123.594 151.233 118.119L149.235 118.214ZM151.192 117.879L148.289 108.207L146.373 108.782L149.276 118.454L151.192 117.879ZM146.593 109.17L150.309 113.227L151.784 111.876L148.068 107.819L146.593 109.17ZM165.031 101.639C158.129 101.639 152.262 106.059 150.103 112.221L151.991 112.882C153.878 107.498 159.005 103.639 165.031 103.639V101.639ZM179.988 112.306C177.853 106.1 171.964 101.639 165.031 101.639V103.639C171.084 103.639 176.231 107.533 178.097 112.956L179.988 112.306ZM182.319 107.573L178.305 111.956L179.78 113.307L183.794 108.924L182.319 107.573ZM180.682 119.638L184.014 108.536L182.099 107.961L178.766 119.063L180.682 119.638Z"
    fill="black" mask="url(#path-16-inside-1)"/>
  <mask id="path-18-inside-2" fill="white">
    <path fill-rule="evenodd" clip-rule="evenodd"
          d="M85.0058 131.152C90.3865 128.932 94.1734 123.634 94.1734 117.452C94.1734 109.271 87.5411 102.639 79.3596 102.639C71.1782 102.639 64.5458 109.271 64.5458 117.452C64.5458 123.634 68.3325 128.932 73.7129 131.152C61.1051 135.692 51.4964 155.139 50.8269 178.824H107.891C107.222 155.14 97.6134 135.692 85.0058 131.152Z"/>
  </mask>
  <path fill-rule="evenodd" clip-rule="evenodd"
        d="M85.0058 131.152C90.3865 128.932 94.1734 123.634 94.1734 117.452C94.1734 109.271 87.5411 102.639 79.3596 102.639C71.1782 102.639 64.5458 109.271 64.5458 117.452C64.5458 123.634 68.3325 128.932 73.7129 131.152C61.1051 135.692 51.4964 155.139 50.8269 178.824H107.891C107.222 155.14 97.6134 135.692 85.0058 131.152Z"
        fill="#D7D7D7"/>
  <path
    d="M85.0058 131.152L84.6244 130.228L82.2304 131.215L84.667 132.093L85.0058 131.152ZM73.7129 131.152L74.0517 132.093L76.4884 131.215L74.0943 130.228L73.7129 131.152ZM50.8269 178.824L49.8273 178.796L49.7982 179.824H50.8269V178.824ZM107.891 178.824V179.824H108.92L108.891 178.796L107.891 178.824ZM93.1734 117.452C93.1734 123.216 89.6438 128.157 84.6244 130.228L85.3872 132.077C91.1292 129.707 95.1734 124.053 95.1734 117.452H93.1734ZM79.3596 103.639C86.9888 103.639 93.1734 109.823 93.1734 117.452H95.1734C95.1734 108.719 88.0933 101.639 79.3596 101.639V103.639ZM65.5458 117.452C65.5458 109.823 71.7305 103.639 79.3596 103.639V101.639C70.6259 101.639 63.5458 108.719 63.5458 117.452H65.5458ZM74.0943 130.228C69.0752 128.156 65.5458 123.215 65.5458 117.452H63.5458C63.5458 124.053 67.5898 129.707 73.3315 132.076L74.0943 130.228ZM73.3741 130.211C66.7274 132.604 61.0141 138.86 56.893 147.373C52.7608 155.908 50.1654 166.833 49.8273 178.796L51.8265 178.852C52.1579 167.13 54.7016 156.489 58.6931 148.244C62.6956 139.977 68.0906 134.239 74.0517 132.093L73.3741 130.211ZM50.8269 179.824H107.891V177.824H50.8269V179.824ZM108.891 178.796C108.553 166.834 105.957 155.908 101.825 147.373C97.7043 138.861 91.9912 132.605 85.3447 130.211L84.667 132.093C90.628 134.24 96.0228 139.977 100.025 148.245C104.017 156.489 106.56 167.13 106.892 178.852L108.891 178.796Z"
    fill="black" mask="url(#path-18-inside-2)"/>
  <mask id="path-20-inside-3" fill="white">
    <path fill-rule="evenodd" clip-rule="evenodd"
          d="M124.119 131.152C129.5 128.932 133.287 123.634 133.287 117.452C133.287 109.271 126.655 102.639 118.473 102.639C110.292 102.639 103.659 109.271 103.659 117.452C103.659 123.634 107.446 128.932 112.826 131.152C100.219 135.692 90.6099 155.139 89.9404 178.824H147.005C146.335 155.14 136.727 135.692 124.119 131.152Z"/>
  </mask>
  <path fill-rule="evenodd" clip-rule="evenodd"
        d="M124.119 131.152C129.5 128.932 133.287 123.634 133.287 117.452C133.287 109.271 126.655 102.639 118.473 102.639C110.292 102.639 103.659 109.271 103.659 117.452C103.659 123.634 107.446 128.932 112.826 131.152C100.219 135.692 90.6099 155.139 89.9404 178.824H147.005C146.335 155.14 136.727 135.692 124.119 131.152Z"
        fill="white"/>
  <path
    d="M124.119 131.152L123.738 130.228L121.344 131.215L123.78 132.093L124.119 131.152ZM112.826 131.152L113.165 132.093L115.602 131.215L113.208 130.228L112.826 131.152ZM89.9404 178.824L88.9408 178.796L88.9117 179.824H89.9404V178.824ZM147.005 178.824V179.824H148.033L148.004 178.796L147.005 178.824ZM132.287 117.452C132.287 123.216 128.757 128.157 123.738 130.228L124.501 132.077C130.243 129.707 134.287 124.053 134.287 117.452H132.287ZM118.473 103.639C126.102 103.639 132.287 109.823 132.287 117.452H134.287C134.287 108.719 127.207 101.639 118.473 101.639V103.639ZM104.659 117.452C104.659 109.823 110.844 103.639 118.473 103.639V101.639C109.739 101.639 102.659 108.719 102.659 117.452H104.659ZM113.208 130.228C108.189 128.156 104.659 123.215 104.659 117.452H102.659C102.659 124.053 106.703 129.707 112.445 132.076L113.208 130.228ZM112.488 130.211C105.841 132.604 100.128 138.86 96.0064 147.373C91.8742 155.908 89.2789 166.833 88.9408 178.796L90.94 178.852C91.2713 167.13 93.8151 156.489 97.8066 148.244C101.809 139.977 107.204 134.239 113.165 132.093L112.488 130.211ZM89.9404 179.824H147.005V177.824H89.9404V179.824ZM148.004 178.796C147.666 166.834 145.071 155.908 140.939 147.373C136.818 138.861 131.105 132.605 124.458 130.211L123.78 132.093C129.741 134.24 135.136 139.977 139.139 148.245C143.13 156.489 145.674 167.13 146.005 178.852L148.004 178.796Z"
    fill="black" mask="url(#path-20-inside-3)"/>
  <mask id="path-22-inside-4" fill="white">
    <path fill-rule="evenodd" clip-rule="evenodd"
          d="M89.1217 101.945L79.3596 68.7784L69.5976 101.945C60.4176 102.662 53.9645 104.361 53.9645 106.342C53.9645 108.972 65.3343 111.104 79.3596 111.104C93.385 111.104 104.755 108.972 104.755 106.342C104.755 104.361 98.3017 102.662 89.1217 101.945Z"/>
  </mask>
  <path fill-rule="evenodd" clip-rule="evenodd"
        d="M89.1217 101.945L79.3596 68.7784L69.5976 101.945C60.4176 102.662 53.9645 104.361 53.9645 106.342C53.9645 108.972 65.3343 111.104 79.3596 111.104C93.385 111.104 104.755 108.972 104.755 106.342C104.755 104.361 98.3017 102.662 89.1217 101.945Z"
        fill="#D7D7D7"/>
  <path
    d="M79.3596 68.7784L80.319 68.4961L79.3596 65.2368L78.4003 68.4961L79.3596 68.7784ZM89.1217 101.945L88.1624 102.227L88.357 102.888L89.0438 102.942L89.1217 101.945ZM69.5976 101.945L69.6755 102.942L70.3623 102.888L70.5569 102.227L69.5976 101.945ZM78.4003 69.0608L88.1624 102.227L90.081 101.663L80.319 68.4961L78.4003 69.0608ZM70.5569 102.227L80.319 69.0608L78.4003 68.4961L68.6383 101.663L70.5569 102.227ZM54.9645 106.342C54.9645 106.419 54.9265 106.2 55.6308 105.778C56.266 105.396 57.2595 105.005 58.6046 104.633C61.2794 103.895 65.1175 103.298 69.6755 102.942L69.5197 100.948C64.8976 101.309 60.9192 101.92 58.0725 102.706C56.6568 103.096 55.4634 103.546 54.6018 104.063C53.8092 104.538 52.9645 105.274 52.9645 106.342H54.9645ZM79.3596 110.104C72.3894 110.104 66.1052 109.573 61.5869 108.726C59.3195 108.301 57.5472 107.805 56.3655 107.281C55.7712 107.018 55.3817 106.771 55.1561 106.564C54.9285 106.356 54.9645 106.282 54.9645 106.342H52.9645C52.9645 107.059 53.3559 107.627 53.8049 108.039C54.2558 108.452 54.8642 108.803 55.5549 109.11C56.9434 109.725 58.8901 110.255 61.2183 110.692C65.8912 111.568 72.3046 112.104 79.3596 112.104V110.104ZM103.755 106.342C103.755 106.282 103.791 106.356 103.563 106.564C103.338 106.771 102.948 107.018 102.354 107.281C101.172 107.805 99.3998 108.301 97.1324 108.726C92.6141 109.573 86.3299 110.104 79.3596 110.104V112.104C86.4147 112.104 92.8281 111.568 97.501 110.692C99.8292 110.255 101.776 109.725 103.164 109.11C103.855 108.803 104.463 108.452 104.914 108.039C105.363 107.627 105.755 107.059 105.755 106.342H103.755ZM89.0438 102.942C93.6018 103.298 97.4399 103.895 100.115 104.633C101.46 105.005 102.453 105.396 103.089 105.778C103.793 106.2 103.755 106.419 103.755 106.342H105.755C105.755 105.274 104.91 104.538 104.118 104.063C103.256 103.546 102.062 103.096 100.647 102.706C97.8001 101.92 93.8217 101.309 89.1996 100.948L89.0438 102.942Z"
    fill="black" mask="url(#path-22-inside-4)"/>
  <path fill-rule="evenodd" clip-rule="evenodd"
        d="M116.394 56.0809C123.407 56.0809 129.092 50.396 129.092 43.3833C129.092 36.3707 123.407 30.6858 116.394 30.6858C109.381 30.6858 103.697 36.3707 103.697 43.3833C103.697 50.396 109.381 56.0809 116.394 56.0809ZM116.394 54.4556C122.509 54.4556 127.466 49.4984 127.466 43.3833C127.466 37.2683 122.509 32.3111 116.394 32.3111C110.279 32.3111 105.322 37.2683 105.322 43.3833C105.322 49.4984 110.279 54.4556 116.394 54.4556Z"
        fill="black"/>
  <path fill-rule="evenodd" clip-rule="evenodd"
        d="M116.485 53.0073C121.75 53.0073 126.018 48.7394 126.018 43.4747C126.018 38.2099 121.75 33.942 116.485 33.942C111.221 33.942 106.953 38.2099 106.953 43.4747C106.953 48.7394 111.221 53.0073 116.485 53.0073ZM116.486 51.7872C121.076 51.7872 124.798 48.0656 124.798 43.4747C124.798 38.8838 121.076 35.1622 116.486 35.1622C111.895 35.1622 108.173 38.8838 108.173 43.4747C108.173 48.0656 111.895 51.7872 116.486 51.7872Z"
        fill="black"/>
  <path
    d="M117.45 45.1891C117.45 48.055 116.902 50.3782 116.225 50.3782C115.549 50.3782 115 48.055 115 45.1891C115 42.3232 115.549 40 116.225 40C116.902 40 117.45 42.3232 117.45 45.1891Z"
    fill="black"/>
  <path
    d="M126.844 38.6267C126.844 42.3284 122.166 45.3293 116.394 45.3293C110.623 45.3293 105.944 42.3284 105.944 38.6267C105.944 34.9249 110.623 31.9241 116.394 31.9241C122.166 31.9241 126.844 34.9249 126.844 38.6267Z"
    fill="black"/>
</svg>
