<svg height='300px' width='300px' fill="#000000" xmlns="http://www.w3.org/2000/svg" version="1.1" x="0px" y="0px"
     viewBox="0 0 64 64" style="enable-background:new 0 0 64 64;" xml:space="preserve"><g><path d="M55,41.586l-1,1V21.414l1,1L59.414,18L54,12.586V5h-7.586L43,1.586L39.586,5H24.414L21,1.586L17.586,5H10v7.586L4.586,18   L9,22.414l1-1v21.172l-1-1L4.586,46L10,51.414V59h7.586L21,62.414L24.414,59h15.172L43,62.414L46.414,59H54v-7.586L59.414,46   L55,41.586z M52,7v3.586L48.414,7H52z M43,4.414L56.586,18L55,19.586L41.414,6L43,4.414z M12,7h3.586L12,10.586V7z M7.414,18   L21,4.414L22.586,6L9,19.586L7.414,18z M12,19.414L24.414,7h15.172L52,19.414v25.172L39.586,57H24.414L12,44.586V19.414z M12,57   v-3.586L15.586,57H12z M21,59.586L7.414,46L9,44.414L22.586,58L21,59.586z M41.414,58L55,44.414L56.586,46L43,59.586L41.414,58z    M52,57h-3.586L52,53.414V57z"></path><path
  d="M47,34V18c0-2.206-1.794-4-4-4H21c-2.206,0-4,1.794-4,4v16c0,2.206,1.794,4,4,4h22C45.206,38,47,36.206,47,34z M19,34V18   c0-1.103,0.897-2,2-2h22c1.103,0,2,0.897,2,2v16c0,1.103-0.897,2-2,2h-3v-2c0-3.343-2.063-6.21-4.982-7.404   C35.622,25.895,36,24.995,36,24v-2c0-2.206-1.794-4-4-4s-4,1.794-4,4v2c0,0.995,0.378,1.895,0.982,2.596   C26.063,27.79,24,30.657,24,34v2h-3C19.897,36,19,35.103,19,34z M30,24v-2c0-1.103,0.897-2,2-2s2,0.897,2,2v2c0,1.103-0.897,2-2,2   S30,25.103,30,24z M32,28c3.309,0,6,2.691,6,6v2H26v-2C26,30.691,28.691,28,32,28z"></path><rect
  x="23" y="40" width="18" height="2"></rect><rect x="23" y="44" width="8" height="2"></rect><rect x="33" y="44"
                                                                                                   width="8"
                                                                                                   height="2"></rect><rect
  x="23" y="52" width="8" height="2"></rect><rect x="33" y="52" width="8" height="2"></rect><rect x="23" y="48"
                                                                                                  width="18"
                                                                                                  height="2"></rect><rect
  x="19" y="44" width="2" height="2"></rect><rect x="43" y="44" width="2" height="2"></rect><rect x="43" y="40"
                                                                                                  width="2"
                                                                                                  height="2"></rect><rect
  x="19" y="40" width="2" height="2"></rect></g></svg>
