<svg width="176" height="128" viewBox="0 0 176 128" fill="none" xmlns="http://www.w3.org/2000/svg">
  <path fill-rule="evenodd" clip-rule="evenodd"
        d="M0.414065 120C1.71992 124.617 5.96489 128 11 128H165C170.035 128 174.28 124.617 175.586 120H168H8H0.414065ZM176 70V116H168V70H176ZM8 70V116H0V70H8ZM70.6756 78H63V92H71V78.5408C70.8891 78.3624 70.781 78.1821 70.6756 78ZM105 78.5408V92H113V78H105.324C105.219 78.1821 105.111 78.3624 105 78.5408ZM63 96V98C63 99.6569 64.3431 101 66 101H110C111.657 101 113 99.6569 113 98V96H63Z"
        fill="white"/>
  <path fill-rule="evenodd" clip-rule="evenodd"
        d="M25 0H151V48H25V0ZM176 48H159V0.0273085C168.476 0.546191 176 8.39443 176 18V48ZM17 0.0273083V48H0V18C0 8.39443 7.52401 0.54619 17 0.0273083ZM88 44C99.0457 44 108 35.0457 108 24C108 12.9543 99.0457 4 88 4C76.9543 4 68 12.9543 68 24C68 35.0457 76.9543 44 88 44Z"
        fill="white"/>
  <path fill-rule="evenodd" clip-rule="evenodd"
        d="M68.0987 66C68.6665 60.282 71.6425 55.2724 75.9981 52H0V66H68.0987ZM100.002 52H176V66H107.901C107.334 60.282 104.358 55.2724 100.002 52Z"
        fill="white"/>
  <path fill-rule="evenodd" clip-rule="evenodd"
        d="M46.6641 70.1404L46.6657 70.198C46.6839 70.8021 46.7447 72.8199 44.8466 74.5276C43.8629 75.4127 43.5375 75.7052 42.7443 75.2355C39.8218 73.5048 38.2909 71.3056 37.9081 70H0V78H70.6756C69.2893 75.6033 68.3859 72.8923 68.0987 70H46.659C46.6612 70.0463 46.6629 70.0931 46.6641 70.1404ZM130.477 70.1404L130.475 70.198C130.457 70.802 130.396 72.8199 132.294 74.5276C133.278 75.4127 133.603 75.7052 134.396 75.2355C137.319 73.5048 138.85 71.3056 139.233 70H176V78H105.324C106.711 75.6033 107.614 72.8923 107.901 70H130.482C130.479 70.0463 130.478 70.0931 130.477 70.1404Z"
        fill="white"/>
  <path fill-rule="evenodd" clip-rule="evenodd"
        d="M88 39C96.2843 39 103 32.2843 103 24C103 15.7157 96.2843 9 88 9C79.7157 9 73 15.7157 73 24C73 32.2843 79.7157 39 88 39ZM88 33C92.9706 33 97 28.9706 97 24C97 19.0294 92.9706 15 88 15C83.0294 15 79 19.0294 79 24C79 28.9706 83.0294 33 88 33Z"
        fill="white"/>
  <ellipse cx="88" cy="24" rx="3" ry="6" fill="white"/>
  <path fill-rule="evenodd" clip-rule="evenodd"
        d="M93.3727 77.6009C96.7307 75.7177 99 72.1239 99 68C99 61.9249 94.0751 57 88 57C81.9249 57 77 61.9249 77 68C77 72.1239 79.2693 75.7177 82.6273 77.6009L77.822 89.7652C77.3035 91.0778 78.2709 92.5 79.6821 92.5H96.3179C97.7291 92.5 98.6965 91.0778 98.178 89.7652L93.3727 77.6009Z"
        fill="white"/>
</svg>
