<svg width="177" height="177" viewBox="0 0 177 177" fill="none" xmlns="http://www.w3.org/2000/svg">
  <path fill-rule="evenodd" clip-rule="evenodd"
        d="M88.5 176.591C137.151 176.591 176.591 137.151 176.591 88.5C176.591 39.8489 137.151 0.409454 88.5 0.409454C39.8489 0.409454 0.409447 39.8489 0.409447 88.5C0.409447 137.151 39.8489 176.591 88.5 176.591ZM88.5 165.315C130.924 165.315 165.315 130.924 165.315 88.5C165.315 46.0763 130.924 11.685 88.5 11.685C46.0763 11.685 11.685 46.0763 11.685 88.5C11.685 130.924 46.0763 165.315 88.5 165.315Z"
        fill="white"/>
  <path fill-rule="evenodd" clip-rule="evenodd"
        d="M89.1339 155.268C125.659 155.268 155.268 125.659 155.268 89.1339C155.268 52.6091 125.659 23 89.1339 23C52.6091 23 23 52.6091 23 89.1339C23 125.659 52.6091 155.268 89.1339 155.268ZM89.1339 146.803C120.983 146.803 146.803 120.983 146.803 89.1338C146.803 57.2843 120.983 31.4651 89.1339 31.4651C57.2843 31.4651 31.4651 57.2843 31.4651 89.1338C31.4651 120.983 57.2843 146.803 89.1339 146.803Z"
        fill="white"/>
  <path
    d="M97 105C97 124.882 93.1944 141 88.5 141C83.8056 141 80 124.882 80 105C80 85.1177 83.8056 69 88.5 69C93.1944 69 97 85.1177 97 105Z"
    fill="white"/>
  <path
    d="M161 55.5C161 81.1812 128.541 102 88.5 102C48.4594 102 16 81.1812 16 55.5C16 29.8188 48.4594 9 88.5 9C128.541 9 161 29.8188 161 55.5Z"
    fill="white"/>
</svg>
